<svg width="199" height="28" viewBox="0 0 199 28" fill="none" xmlns="http://www.w3.org/2000/svg">
<g opacity="0.9">
<path d="M0 27.4286H2.9112V0H0V27.4286Z" fill="white"/>
<path d="M15.6412 27.4286H18.5524V2.68571H28.5139V0H5.67975V2.68571H15.6412V27.4286Z" fill="white"/>
<path d="M30.8975 27.4286H48.7212V24.7429H33.8087V14.8571H46.3447V12.1714H33.8087V2.68571H48.7212V0H30.8975V27.4286Z" fill="white"/>
<path d="M52.6944 27.4286H55.6056V17.0095H64.7155L69.9636 27.4286H73.3105L67.6861 16.3238C69.2836 15.7016 70.5115 14.6921 71.3697 13.2952C72.2278 11.8984 72.6569 10.3048 72.6569 8.51429C72.6569 6.36825 72.0562 4.52064 70.8548 2.97143C69.6533 1.42222 67.9369 0.48254 65.7057 0.152381C65.3492 0.0888893 64.9927 0.0507938 64.6363 0.0380947C64.293 0.0126982 63.9827 0 63.7055 0H52.6944V27.4286ZM55.6056 14.3429V2.68571H63.6263C63.8639 2.68571 64.1412 2.69841 64.458 2.72381C64.7881 2.73651 65.0984 2.7746 65.3888 2.8381C66.8543 3.14286 67.9303 3.84762 68.6169 4.95238C69.3166 6.04444 69.6665 7.23175 69.6665 8.51429C69.6665 9.78413 69.3166 10.9714 68.6169 12.0762C67.9303 13.181 66.8543 13.8794 65.3888 14.1714C65.0984 14.2349 64.7881 14.2794 64.458 14.3048C64.1412 14.3302 63.8639 14.3429 63.6263 14.3429H55.6056Z" fill="white"/>
<path d="M77.2855 27.4286H80.1967V0H77.2855V27.4286Z" fill="white"/>
<path d="M96.4717 28C98.6501 28 100.571 27.5683 102.235 26.7048C103.911 25.8286 105.225 24.6032 106.176 23.0286C107.126 21.454 107.602 19.619 107.602 17.5238V0H104.671V17.1619C104.671 18.5841 104.42 19.8159 103.918 20.8571C103.43 21.8857 102.776 22.7365 101.957 23.4095C101.152 24.0698 100.267 24.5587 99.3037 24.8762C98.3399 25.1937 97.3959 25.3524 96.4717 25.3524C95.5607 25.3524 94.6233 25.1937 93.6595 24.8762C92.6957 24.5587 91.8045 24.0698 90.9859 23.4095C90.1806 22.7365 89.527 21.8857 89.0253 20.8571C88.5236 19.8159 88.2728 18.5841 88.2728 17.1619V0L85.3418 0.0190485V17.5238C85.3418 19.6317 85.8171 21.473 86.7677 23.0476C87.7183 24.6222 89.0319 25.8413 90.7087 26.7048C92.3854 27.5683 94.3064 28 96.4717 28Z" fill="white"/>
<path d="M112.36 27.4286H115.153V6.24762L125.293 27.4286H127.174L137.333 6.24762V27.4095H140.106V0H137.393L126.243 23.0667L115.034 0H112.36V27.4286Z" fill="white"/>
<path d="M143.881 27.4286H145.218V26.1429H143.881V27.4286Z" fill="white"/>
<path d="M152.654 27.4286H153.589V12.9H159.471V12H146.772V12.9H152.654V27.4286Z" fill="white"/>
<path d="M160.804 27.4286H170.607V26.5286H161.74V20.1643H169.271V19.2643H161.74V12.9H170.607V12H160.804V27.4286Z" fill="white"/>
<path d="M178.565 27.75C180.437 27.75 181.944 27.2821 183.088 26.3464C184.232 25.4036 185.004 24.15 185.405 22.5857L184.425 22.3714C184.068 23.7286 183.4 24.8143 182.42 25.6286C181.447 26.4429 180.162 26.85 178.565 26.85C177.191 26.85 176.04 26.5464 175.112 25.9393C174.191 25.325 173.5 24.4821 173.04 23.4107C172.579 22.3393 172.357 21.1071 172.372 19.7143C172.386 18.3214 172.624 17.0893 173.084 16.0179C173.545 14.9393 174.228 14.0964 175.134 13.4893C176.048 12.8821 177.191 12.5786 178.565 12.5786C180.162 12.5786 181.447 12.9857 182.42 13.8C183.4 14.6071 184.068 15.6929 184.425 17.0571L185.405 16.8429C185.004 15.2786 184.232 14.0286 183.088 13.0929C181.944 12.15 180.437 11.6786 178.565 11.6786C176.969 11.6786 175.635 12.0214 174.566 12.7071C173.504 13.3929 172.706 14.3393 172.171 15.5464C171.636 16.7536 171.369 18.1429 171.369 19.7143C171.369 21.2857 171.636 22.675 172.171 23.8821C172.706 25.0893 173.504 26.0357 174.566 26.7214C175.635 27.4071 176.969 27.75 178.565 27.75Z" fill="white"/>
<path d="M187.415 27.4286H188.35V20.1643H198.064V27.4286H199V12H198.064V19.2643H188.35V12H187.415V27.4286Z" fill="white"/>
</g>
</svg>
