<svg width="32" height="227" viewBox="0 0 32 227" fill="none" xmlns="http://www.w3.org/2000/svg">
<path d="M31.3469 227L31.3469 223.679L-1.45158e-07 223.679L0 227L31.3469 227Z" fill="#161C23"/>
<path d="M31.3469 209.158L31.3469 205.837L3.06939 205.837L3.06939 194.474L-1.42175e-06 194.474L-2.83202e-07 220.521L3.06939 220.521L3.06939 209.158L31.3469 209.158Z" fill="#161C23"/>
<path d="M31.3469 191.755L31.3469 171.424L28.2775 171.424L28.2775 188.434L16.9796 188.434L16.9796 174.134L13.9102 174.134L13.9102 188.434L3.06939 188.434L3.06939 171.424L-2.42932e-06 171.424L-1.5406e-06 191.755L31.3469 191.755Z" fill="#161C23"/>
<path d="M31.3469 166.891L31.3469 163.571L19.4395 163.571L19.4395 153.179L31.3469 147.192L31.3469 143.374L18.6558 149.79C17.9447 147.968 16.7909 146.567 15.1946 145.588C13.5982 144.609 11.7769 144.12 9.73061 144.12C7.278 144.12 5.16644 144.805 3.39592 146.176C1.62539 147.546 0.551471 149.504 0.174147 152.049C0.101584 152.456 0.0580468 152.863 0.0435336 153.269C0.0145091 153.661 -3.19029e-06 154.015 -3.17647e-06 154.331L-2.62743e-06 166.891L31.3469 166.891ZM16.3918 163.571L3.06939 163.571L3.06939 154.421C3.06939 154.15 3.0839 153.834 3.11292 153.473C3.12744 153.096 3.17097 152.742 3.24354 152.411C3.59183 150.739 4.39727 149.512 5.65986 148.728C6.90793 147.93 8.26485 147.531 9.73061 147.531C11.1819 147.531 12.5388 147.93 13.8014 148.728C15.0639 149.512 15.8621 150.739 16.1959 152.411C16.2685 152.742 16.3193 153.096 16.3483 153.473C16.3773 153.834 16.3918 154.15 16.3918 154.421L16.3918 163.571Z" fill="#161C23"/>
<path d="M31.3469 138.84L31.3469 135.519L-3.99875e-06 135.519L-3.85359e-06 138.84L31.3469 138.84Z" fill="#161C23"/>
<path d="M32 116.954C32 114.469 31.5066 112.278 30.5197 110.381C29.5184 108.468 28.1179 106.969 26.3184 105.885C24.5188 104.801 22.4218 104.259 20.0272 104.259L-5.3652e-06 104.259L-5.21906e-06 107.602L19.6136 107.602C21.239 107.602 22.6467 107.888 23.8367 108.46C25.0122 109.018 25.9846 109.763 26.7537 110.697C27.5084 111.616 28.0671 112.625 28.4299 113.724C28.7927 114.823 28.9741 115.9 28.9741 116.954C28.9741 117.994 28.7927 119.063 28.4299 120.162C28.0671 121.262 27.5084 122.278 26.7537 123.212C25.9846 124.131 25.0122 124.876 23.8367 125.448C22.6467 126.021 21.239 126.307 19.6136 126.307L-4.40143e-06 126.307L0.0217655 129.65L20.0272 129.65C22.4363 129.65 24.5406 129.108 26.3401 128.024C28.1397 126.939 29.5329 125.441 30.5197 123.528C31.5066 121.616 32 119.424 32 116.954Z" fill="#161C23"/>
<path d="M31.3469 98.8301L31.3469 95.6448L7.14013 95.6448L31.3469 84.0784L31.3469 81.9323L7.14013 70.3433L31.3252 70.3433L31.3252 67.1806L-6.98593e-06 67.1806L-6.85064e-06 70.2755L26.3619 82.994L-5.73579e-06 95.7803L-5.60249e-06 98.8301L31.3469 98.8301Z" fill="#161C23"/>
<path d="M31.3469 62.8739L31.3469 61.3491L29.8775 61.3491L29.8775 62.8739L31.3469 62.8739Z" fill="#161C23"/>
<path d="M31.3469 52.8676L31.3469 51.8002L14.7429 51.8002L14.7428 45.0908L13.7143 45.0908L13.7143 59.577L14.7429 59.577L14.7429 52.8676L31.3469 52.8676Z" fill="#161C23"/>
<path d="M31.3469 43.5699L31.3469 32.3875L30.3184 32.3875L30.3184 42.5024L23.0449 42.5024L23.0449 33.9124L22.0163 33.9124L22.0163 42.5024L14.7428 42.5024L14.7428 32.3875L13.7143 32.3875L13.7143 43.5699L31.3469 43.5699Z" fill="#161C23"/>
<path d="M31.7143 23.31C31.7143 21.1752 31.1796 19.4555 30.1102 18.1509C29.0326 16.8463 27.6 15.9652 25.8122 15.5078L25.5673 16.626C27.1184 17.0326 28.3592 17.7951 29.2898 18.9133C30.2204 20.0231 30.6857 21.4886 30.6857 23.31C30.6857 24.8772 30.3388 26.1903 29.6449 27.2493C28.9428 28.2997 27.9796 29.0876 26.7551 29.6128C25.5306 30.138 24.1224 30.3921 22.5306 30.3752C20.9388 30.3583 19.5306 30.0872 18.3061 29.562C17.0735 29.0367 16.1102 28.2573 15.4163 27.2238C14.7224 26.1818 14.3755 24.8772 14.3755 23.31C14.3755 21.4886 14.8408 20.0231 15.7714 18.9133C16.6939 17.7951 17.9347 17.0326 19.4939 16.626L19.249 15.5078C17.4612 15.9652 16.0326 16.8463 14.9633 18.1509C13.8857 19.4555 13.3469 21.1752 13.3469 23.31C13.3469 25.1314 13.7388 26.652 14.5224 27.8719C15.3061 29.0833 16.3877 29.994 17.7673 30.6039C19.1469 31.2139 20.7347 31.5189 22.5306 31.5189C24.3265 31.5189 25.9143 31.2139 27.2939 30.6039C28.6735 29.994 29.7551 29.0833 30.5388 27.8719C31.3224 26.652 31.7143 25.1314 31.7143 23.31Z" fill="#161C23"/>
<path d="M31.3469 13.2155L31.3469 12.1481L23.0449 12.1481L23.0449 1.0674L31.3469 1.0674L31.3469 -1.37022e-06L13.7143 -5.9947e-07L13.7143 1.0674L22.0163 1.0674L22.0163 12.1481L13.7143 12.1481L13.7143 13.2155L31.3469 13.2155Z" fill="#161C23"/>
</svg>
